<svg width="0" height="0">
  <symbol xmlns="http://www.w3.org/2000/svg" viewBox="0 0 45 55" id="logo-main" fill="inherit"><path d="M13.312.581c-.754-.537-1.711-.7-2.6-.444-2.63.5-2.238 2.858-2.071 3.865l.04.262c.097.784.52 1.491 1.164 1.948a3.57 3.57 0 0 0 2.072.686 2.9 2.9 0 0 0 .525-.047c1.458-.269 2.038-2.174 2.025-3.136.078-1.161-.342-2.301-1.155-3.134zm11.752.283A2.9 2.9 0 0 0 22.95.02a3.24 3.24 0 0 0-2.511.8 2.69 2.69 0 0 0-.856 1.951v.277c-.018 1.382-.047 3.7 3.128 3.765h.167c2.442 0 2.724-1.243 2.834-2.863.199-1.074-.034-2.183-.648-3.086zm11.753.844A3.51 3.51 0 0 0 34.635.252c-.947-.12-1.902.161-2.633.775-.825.782-1.246 1.899-1.144 3.031.027 1.512 1.751 2.579 3.331 2.7l.24.01c1.5 0 2.55-1.1 2.909-3.041a2.68 2.68 0 0 0-.521-2.019zm7.942 10.249c-.357-1.064-1.133-1.935-2.149-2.412-2.074-.9-6.113-1.755-21.484-1.991-14.47-.232-17.317 1.776-19.2 3.1l-.3.208c-1.06.587-1.69 1.73-1.621 2.94s.826 2.273 1.946 2.735a6.05 6.05 0 0 0 3.072.833 5.18 5.18 0 0 0 3.409-1.116c.575-.618.781-1.1.629-1.482-.178-.443-.823-.691-1.974-.761a.8.8 0 0 1-.723-.358c-.273-.525.255-1.47.347-1.627a33.9 33.9 0 0 1 4.857-1.167 151.09 151.09 0 0 1 17.656-.269c5.706.368 8.859 1.008 9.642 1.96.449.544.714.947.647 1.268-.063.3-.413.584-1.248 1.01-.725.368-1.042.672-1.03.987.015.388.515.741 1.783 1.263 1.374.373 2.839.194 4.082-.5a3.47 3.47 0 0 0 1.908-1.8 4.99 4.99 0 0 0-.249-2.821zm-18.76 5.99c-.127-1.653-1.036-4.323-2.172-4.744h0c-.575-.213-3.5-1.163-4.607 1.118-.716 1.474.5 16.211 1.309 25.962l.524 6.811c.117 3.1.5 6.527 1.018 7.079.277.331.666.549 1.094.609a.54.54 0 0 0 .18-.029c.249-.083.4-.339.441-.757.184-1.789 2.331-34.498 2.213-36.049zm10.183-1.107a9.35 9.35 0 0 1-.547-1.217c-.4-1-.77-1.953-1.836-2.247-.8-.212-1.653-.078-2.349.37-.629.396-1.055 1.044-1.169 1.778s-.422 5.377-.778 10.753l-1.187 16.162a51.01 51.01 0 0 0-.333 6.475l-.042 2.55c-.115 2.44 0 3.167 1.007 3.634a.79.79 0 0 0 .336.075.99.99 0 0 0 .474-.131 3.01 3.01 0 0 0 1.258-1.985c.129-.948 4.864-26.871 5.173-28.459s.779-6.382-.007-7.758zM18.303 50.954l-.041-2.542a51.25 51.25 0 0 0-.333-6.483c-.273-2.388-.757-9.693-1.185-16.14l-.781-10.777a2.28 2.28 0 0 0-1.024-1.611 3.02 3.02 0 0 0-2.407-.312c-1.452.4-2.216 1.411-2.477 3.268a35.49 35.49 0 0 0 0 7.732l5.173 28.459c.134.805.588 1.521 1.259 1.985a.98.98 0 0 0 .472.131.79.79 0 0 0 .335-.075c1.011-.471 1.123-1.198 1.009-3.635z" fill="inherit"/></symbol>
  <symbol xmlns="http://www.w3.org/2000/svg" viewBox="0 0 406 48" id="logo-main-text">
    <g fill="#fff"><path d="M7.237 24.29a10.45 10.45 0 0 1-5.26-1.129l-.424 1.129H.21l-.212-7.378 1.341-.105.741 3.388c1.092 1.486 2.817 2.374 4.66 2.4 2.612 0 4.589-1.554 4.589-3.918 0-2.153-1.341-3.036-5.26-4.907C2.221 11.935.386 10.381.386 7.063c0-3.529 3-5.648 6.6-5.648 1.597-.036 3.181.303 4.624.989l.424-.989h1.307l-.142 6.566h-1.307l-.635-3.106a4.66 4.66 0 0 0-4.094-1.871c-2.047 0-3.883 1.271-3.883 3.283 0 2.047.917 2.718 5.189 4.8 3.6 1.765 5.9 3.212 5.9 6.672-.002 3.844-3.285 6.531-7.132 6.531zm20.509-.146c-1.302-.014-2.445-.871-2.824-2.117-1.113 1.171-2.597 1.919-4.2 2.117-2.365 0-4.236-1.447-4.236-3.777 0-2.824 2.26-3.988 4.977-4.482l3.283-.6v-2.083c0-1.765-.706-2.577-2.648-2.577-1.63.079-3.113.966-3.953 2.365l-1.094-1.094A6.98 6.98 0 0 1 22.77 8.93c3.318 0 5.083 1.412 5.083 4.13v7.025c0 1.764.706 2.117 1.412 2.117a1.92 1.92 0 0 0 1.341-.458l.388.812a4.7 4.7 0 0 1-3.248 1.588zm-3-7.659l-2.4.458c-1.7.318-2.965 1.13-2.965 2.895a2.38 2.38 0 0 0 2.613 2.329 4.18 4.18 0 0 0 2.753-1.27zm16.593 7.236v-1.129l2.365-.318v-10.59a2.84 2.84 0 0 0-2.365-.953c-2.859 0-4.165 3.106-4.165 6.283v5.26l2.365.318v1.129h-7.7v-1.129l2.224-.318V11.331l-2.224-.388v-1.13l5.153-.706v3.353l.142.035a5.42 5.42 0 0 1 5.118-3.53c2.93 0 4.554 1.977 4.554 4.942v8.366l2.224.318v1.129zm29.411 0v-1.268l2.823-.318-2.046-5.26h-8.049l-1.976 5.153 2.753.424v1.271h-6.954v-1.306l2.223-.388 8.014-20.05h1.588l8.083 20.156 2.153.318v1.271zM67.502 6.495l-3.389 8.79h6.778zm21.989 17.226v-1.129l2.366-.318v-10.59c-.594-.673-1.471-1.027-2.366-.953-2.859 0-4.165 3.106-4.165 6.283v5.26l2.365.318v1.129h-7.7v-1.129l2.224-.318V11.331l-2.224-.388v-1.13l5.153-.706v3.353l.142.035a5.42 5.42 0 0 1 5.118-3.53c2.93 0 4.554 1.977 4.554 4.942v8.366l2.224.318v1.129zm14.335.386c-2.224 0-3.812-1.483-3.812-4.2v-8.79h-2.329v-1.13l2.294-.847 1.976-4.518h1.13v4.871h4.342v1.623h-4.342v8.225c0 1.941.777 2.965 2.259 2.965a3.05 3.05 0 0 0 2.365-1.024l.6.777c-1.086 1.354-2.749 2.113-4.483 2.048zm12.426.037a7.59 7.59 0 1 1 7.519-7.589 7.29 7.29 0 0 1-2.104 5.435c-1.427 1.44-3.389 2.221-5.415 2.154zm0-13.907c-2.471 0-4.059 2.223-4.059 6.318s1.553 6.319 4.059 6.319c2.471 0 4.094-2.223 4.094-6.319s-1.628-6.318-4.094-6.318zm18.64 13.484v-1.129l2.365-.318v-10.59a2.84 2.84 0 0 0-2.365-.953c-2.859 0-4.165 3.106-4.165 6.283v5.26l2.365.318v1.129h-7.7v-1.129l2.223-.318V11.331l-2.223-.388v-1.13l5.153-.706v3.353l.141.035a5.42 5.42 0 0 1 5.118-3.53c2.93 0 4.554 1.977 4.554 4.942v8.366l2.224.318v1.129zm9.462 0v-1.129l2.224-.318V11.331l-2.224-.388v-1.13l5.33-.848v13.308l2.259.318v1.129zm3.53-17.791c-.8 0-1.521-.481-1.827-1.22a1.98 1.98 0 0 1 .428-2.155c.565-.566 1.416-.735 2.155-.429a1.98 1.98 0 0 1 1.221 1.827c.001.525-.207 1.028-.577 1.399s-.874.579-1.399.579zm12.99 18.214a7.59 7.59 0 1 1 7.519-7.589c.086 2.026-.677 3.995-2.103 5.435s-3.389 2.221-5.416 2.154zm0-13.907c-2.471 0-4.059 2.223-4.059 6.318s1.553 6.319 4.059 6.319c2.471 0 4.094-2.223 4.094-6.319s-1.623-6.318-4.094-6.318zm29.619 13.484v-1.268l2.824-.318-2.047-5.26h-8.048l-1.977 5.153 2.754.424v1.271h-6.954v-1.306l2.223-.388 8.013-20.05h1.593l8.083 20.156 2.154.318v1.271zm-3.248-17.226l-3.388 8.79h6.778zm23.053 6.107l-2.855-1.452c-1.447.671-2.4 2.542-2.4 5.083v6.036l3.353.318v1.129h-8.653v-1.129l2.224-.318V11.331l-2.224-.388v-1.13l5.047-.671v3.318l.177.035c1.129-2.682 2.612-3.53 4.2-3.53.8.03 1.563.343 2.153.883zm5.403 3.389v.424c0 3.495 1.942 6 4.73 6a5.68 5.68 0 0 0 4.483-1.871l.847.883a7.72 7.72 0 0 1-5.965 2.717c-4.342 0-7.448-2.929-7.448-7.589a7.36 7.36 0 0 1 7.483-7.589c3.884 0 6.107 2.436 6.107 6.142v.882zm3.918-5.753c-2.153 0-3.495 1.87-3.812 4.412h6.883c0-2.3-.564-4.413-3.071-4.413zm18.922 13.906c-1.303-.014-2.446-.871-2.825-2.117-1.113 1.171-2.597 1.919-4.2 2.117-2.366 0-4.236-1.447-4.236-3.777 0-2.824 2.26-3.988 4.977-4.482l3.283-.6v-2.083c0-1.765-.706-2.577-2.648-2.577-1.63.078-3.114.966-3.954 2.365l-1.094-1.094a6.98 6.98 0 0 1 5.719-2.966c3.318 0 5.083 1.412 5.083 4.13v7.025c0 1.764.706 2.117 1.412 2.117a1.92 1.92 0 0 0 1.341-.458l.388.812a4.7 4.7 0 0 1-3.246 1.588zm-3-7.659l-2.4.458c-1.694.318-2.965 1.13-2.965 2.895a2.38 2.38 0 0 0 2.612 2.329 4.18 4.18 0 0 0 2.754-1.27zm29.618-9.39l-.495-3.529h-7.8v8.4h5.507l.352-2.435h1.341v6.495h-1.341l-.352-2.436h-5.508v8.543l3.459.318v1.271h-9.599v-1.269l2.753-.318V3.566l-2.753-.319V1.976h15.92v5.118z"/><use xlink:href="#B"/>
    <path d="M295.025 24.075V20.65l-.141-.035a5.42 5.42 0 0 1-5.119 3.529c-2.929 0-4.553-1.976-4.553-4.941v-8.154l-2.224-.424V9.496h5.33v11.9a2.84 2.84 0 0 0 2.33.988c2.858 0 4.2-3.106 4.2-6.283v-5.084l-2.436-.388V9.5h5.543v12.46l2.223.388v1.094zm16.417-.354v-1.129l2.366-.318v-10.59a2.84 2.84 0 0 0-2.366-.953c-2.859 0-4.166 3.106-4.166 6.283v5.26l2.366.318v1.129h-7.7v-1.129l2.224-.318V11.331l-2.224-.388v-1.13l5.154-.706v3.353l.141.035a5.42 5.42 0 0 1 5.119-3.53c2.929 0 4.554 1.977 4.554 4.942v8.366l2.223.318v1.129zm19.663.354V21.85l-.141-.07a5.01 5.01 0 0 1-4.412 2.364c-3.248 0-6.459-2.4-6.459-7.13s3-8.048 7.024-8.048a5.02 5.02 0 0 1 3.812 1.447v-8.3l-2.294-.388V.634l5.4-.635v21.956l2.223.388v1.091zm-.177-11.721c-.662-1.165-1.874-1.91-3.212-1.976-3.142 0-4.377 3.071-4.377 6.283 0 3.142 1.447 5.789 4.1 5.789a3.58 3.58 0 0 0 3.494-2.577zm18.04 11.79c-1.303-.014-2.446-.871-2.825-2.117a6.97 6.97 0 0 1-4.2 2.117c-2.366 0-4.236-1.447-4.236-3.777 0-2.824 2.259-3.988 4.977-4.482l3.283-.6v-2.083c0-1.765-.706-2.577-2.648-2.577-1.63.078-3.114.966-3.954 2.365l-1.094-1.094a6.98 6.98 0 0 1 5.719-2.966c3.318 0 5.083 1.412 5.083 4.13v7.025c0 1.764.706 2.117 1.412 2.117a1.92 1.92 0 0 0 1.341-.458l.388.812a4.7 4.7 0 0 1-3.246 1.588zm-3-7.659l-2.4.458c-1.694.318-2.965 1.13-2.965 2.895a2.38 2.38 0 0 0 2.612 2.329 4.18 4.18 0 0 0 2.754-1.27zm12.144 7.622c-2.224 0-3.812-1.483-3.812-4.2v-8.79h-2.33v-1.13l2.295-.847 1.977-4.518h1.129v4.871h4.342v1.623h-4.342v8.225c0 1.941.777 2.965 2.259 2.965a3.04 3.04 0 0 0 2.365-1.024l.6.777c-1.086 1.354-2.749 2.113-4.483 2.048zm5.72-.386v-1.129l2.224-.318V11.331l-2.224-.388v-1.13l5.329-.848v13.308l2.259.318v1.129zm3.53-17.791a1.98 1.98 0 0 1-1.827-1.22c-.306-.738-.137-1.589.429-2.155s1.416-.735 2.155-.429 1.22 1.027 1.22 1.827c.001.524-.207 1.028-.577 1.399s-.873.579-1.398.579z"/><use xlink:href="#B" x="105.804"/><path d="M398.641 23.721v-1.129l2.366-.318v-10.59a2.84 2.84 0 0 0-2.366-.953c-2.859 0-4.165 3.106-4.165 6.283v5.26l2.365.318v1.129h-7.694v-1.129l2.223-.318V11.331l-2.223-.388v-1.13l5.153-.706v3.353l.141.035c.795-2.135 2.841-3.546 5.119-3.53 2.93 0 4.554 1.977 4.554 4.942v8.366l2.224.318v1.129zM3.128 44.969L.195 34.276H1.83l2.26 8.417 2.353-8.417h1.665l2.352 8.417 2.261-8.417h1.649l-2.933 10.693H9.62l-2.337-8.417-2.353 8.417zm18.119-4.507c0-1.389-.7-1.894-1.573-1.894a2.16 2.16 0 0 0-2.093 2.292v4.109h-1.512V34.276h1.512v4.231a2.78 2.78 0 0 1 2.489-1.329c1.543 0 2.689.933 2.689 3.071v4.72h-1.513zm10.205 3.347a3.79 3.79 0 0 1-2.933 1.313c-2.084-.101-3.738-1.793-3.79-3.879s1.514-3.859 3.59-4.065a3.59 3.59 0 0 1 3.513 3.712c-.001.246-.026.492-.076.733h-5.451c.018.586.268 1.14.695 1.541s.996.616 1.581.597a2.6 2.6 0 0 0 1.986-.947zm-5.117-3.377h3.926a2 2 0 0 0-1.924-1.909 2.07 2.07 0 0 0-2.002 1.908zm9.014-.397c.412-1.207 1.4-2.674 2.871-2.857v1.788a3.62 3.62 0 0 0-2.871 3.177v2.826h-1.513v-7.638h1.512zm10.616 3.774a3.79 3.79 0 0 1-2.933 1.313c-2.084-.101-3.738-1.793-3.79-3.879s1.514-3.859 3.59-4.065a3.59 3.59 0 0 1 3.514 3.712c-.001.246-.026.492-.076.733h-5.453c.018.586.268 1.14.695 1.541s.996.616 1.581.597a2.6 2.6 0 0 0 1.985-.947zm-5.117-3.377h3.926a2 2 0 0 0-1.925-1.909 2.07 2.07 0 0 0-2 1.908zm15.918-1.222h4.812v5.759h-1.36v-1.742a3.6 3.6 0 0 1-3.376 1.894c-2.856 0-4.873-2.338-4.873-5.5s2.154-5.5 5.041-5.5c1.788-.003 3.423 1.01 4.216 2.613l-1.313.763a3.28 3.28 0 0 0-2.9-1.909c-1.97 0-3.437 1.726-3.437 4.033s1.375 4.033 3.36 4.033a3.2 3.2 0 0 0 3.132-3.025h-3.3zm6.892-4.049a.98.98 0 1 1 .978.977.96.96 0 0 1-.978-.977zm.229 2.169h1.514v7.638h-1.513zm6.095 7.639l-2.964-7.638h1.65l2.124 5.909 2.139-5.912h1.65l-2.964 7.638zm5.989-9.808a.98.98 0 1 1 .978.977.96.96 0 0 1-.978-.977zm.229 2.169h1.513v7.638h-1.512zm9.165 3.132c0-1.389-.7-1.894-1.573-1.894a2.16 2.16 0 0 0-2.093 2.292v4.109h-1.513v-7.638h1.513v1.176a2.78 2.78 0 0 1 2.49-1.329c1.542 0 2.688.933 2.688 3.071v4.72h-1.512zm6.724-3.285c.971-.029 1.887.453 2.414 1.269V37.33h1.512v6.647c0 2.978-1.573 3.987-3.452 3.987a5.16 5.16 0 0 1-3.406-1.3l.81-1.176a3.95 3.95 0 0 0 2.474 1.1c1.268 0 2.063-.734 2.063-2.429v-.672a2.74 2.74 0 0 1-2.414 1.268c-1.955 0-3.224-1.6-3.224-3.789s1.268-3.789 3.223-3.789zm.382 6.187c1.007.156 2.005-.332 2.5-1.223s.383-1.996-.281-2.768-1.739-1.05-2.695-.695-1.588 1.268-1.586 2.287a2.17 2.17 0 0 0 2.062 2.401zm9.839-5.346c.867-.551 1.873-.843 2.9-.84 1.772 0 3.269.84 3.269 3.529v4.262h-1.5v-.978c-.616.7-1.497 1.11-2.429 1.131a2.36 2.36 0 0 1-2.6-2.475c0-1.6 1.13-2.566 2.856-2.566a4.89 4.89 0 0 1 2.169.519c-.015-1.512-.764-2.062-1.894-2.062a3.97 3.97 0 0 0-2.107.672zm4.674 4.766v-1.13a4 4 0 0 0-1.849-.474c-1.039 0-1.635.55-1.635 1.421-.018.37.124.729.391.987a1.28 1.28 0 0 0 .999.357 2.63 2.63 0 0 0 2.095-1.161zm9.044-2.322c0-1.389-.7-1.894-1.573-1.894a2.16 2.16 0 0 0-2.093 2.292v4.109h-1.513v-7.638h1.513v1.176a2.78 2.78 0 0 1 2.489-1.329c1.543 0 2.689.933 2.689 3.071v4.72h-1.513zm9.32-6.186h1.512v10.693h-1.512v-1.176a2.83 2.83 0 0 1-2.475 1.329c-2 0-3.346-1.7-3.346-3.971s1.344-3.972 3.346-3.972a2.81 2.81 0 0 1 2.475 1.344zm-2.124 4.292c-1.087-.198-2.181.305-2.738 1.259s-.456 2.154.251 3.003 1.87 1.163 2.909.787 1.73-1.362 1.731-2.467c.078-.632-.11-1.268-.518-1.757s-1-.788-1.635-.825zm19.417 2.979a4.87 4.87 0 0 1-4.674 3.574c-2.856 0-5.026-2.338-5.026-5.5s2.154-5.5 5.026-5.5a4.87 4.87 0 0 1 4.674 3.574l-1.5.458c-.367-1.461-1.657-2.502-3.162-2.551-1.971 0-3.437 1.711-3.437 4.018s1.466 4.018 3.437 4.018c1.505-.049 2.795-1.09 3.162-2.551zm5.241-4.37a3.98 3.98 0 1 1-3.727 3.972 3.75 3.75 0 0 1 1.008-2.789c.705-.752 1.689-1.179 2.719-1.183zm0 6.553a2.63 2.63 0 0 0 2.448-4.286c-.713-.843-1.877-1.15-2.913-.768s-1.723 1.37-1.719 2.474a2.31 2.31 0 0 0 2.184 2.582zm15.414-3.436c0-1.237-.672-1.726-1.451-1.726a1.94 1.94 0 0 0-1.849 2.078v4.323h-1.512v-4.675c0-1.237-.672-1.726-1.451-1.726a1.94 1.94 0 0 0-1.849 2.078v4.323h-1.515v-7.638h1.512v1.192a2.44 2.44 0 0 1 2.292-1.344c.977-.061 1.883.512 2.246 1.421.488-.912 1.455-1.465 2.489-1.421 1.543 0 2.6.933 2.6 2.917v4.874h-1.513zm13.521 0c0-1.237-.672-1.726-1.451-1.726a1.94 1.94 0 0 0-1.849 2.078v4.323h-1.512v-4.675c0-1.237-.671-1.726-1.451-1.726a1.94 1.94 0 0 0-1.849 2.078v4.323h-1.512v-7.638h1.512v1.192a2.44 2.44 0 0 1 2.292-1.344c.977-.061 1.883.512 2.246 1.421.488-.913 1.456-1.465 2.49-1.421 1.542 0 2.6.933 2.6 2.917v4.874h-1.512zm5.318 1.546c0 1.39.7 1.894 1.573 1.894a2.16 2.16 0 0 0 2.095-2.294v-4.109h1.513v7.638h-1.513v-1.176a2.78 2.78 0 0 1-2.489 1.329c-1.542 0-2.688-.932-2.688-3.071v-4.72h1.512zm12.835-1.378c0-1.389-.7-1.894-1.574-1.894a2.16 2.16 0 0 0-2.093 2.292v4.109h-1.512v-7.638h1.512v1.176a2.78 2.78 0 0 1 2.49-1.329c1.543 0 2.688.933 2.688 3.071v4.72h-1.511zm3.664-5.301a.98.98 0 1 1 .978.977.96.96 0 0 1-.978-.977zm.228 2.169h1.513v7.638h-1.513zm3.163 0h1.328v-2.184l1.513-.5v2.688h2.567v1.375h-2.567v3.651c0 1.1.5 1.374 1.085 1.374a2.79 2.79 0 0 0 1.268-.427l.5 1.252a3.6 3.6 0 0 1-1.986.565c-1.314 0-2.383-.642-2.383-2.842v-3.574h-1.328zm6.555 9.381a5.11 5.11 0 0 0 2.674-1.849l-2.918-7.531h1.649l2.108 5.881 2.153-5.881h1.65l-2.612 6.676c-1.131 2.9-2.9 3.8-4.094 4.063zm21.968-5.164a4.87 4.87 0 0 1-4.675 3.574c-2.857 0-5.026-2.338-5.026-5.5s2.154-5.5 5.026-5.5a4.87 4.87 0 0 1 4.675 3.574l-1.5.458a3.37 3.37 0 0 0-3.161-2.551c-1.971 0-3.437 1.711-3.437 4.018s1.467 4.018 3.437 4.018a3.37 3.37 0 0 0 3.161-2.551zm5.241-4.37a3.98 3.98 0 1 1-3.728 3.972c-.062-1.029.303-2.038 1.008-2.789a3.75 3.75 0 0 1 2.72-1.183zm0 6.553c1.088.186 2.176-.329 2.723-1.287a2.63 2.63 0 0 0-.276-3c-.713-.843-1.877-1.149-2.913-.768s-1.723 1.37-1.719 2.474a2.31 2.31 0 0 0 2.185 2.582zm10.968-3.268c0-1.389-.7-1.894-1.574-1.894a2.16 2.16 0 0 0-2.093 2.292v4.109h-1.512v-7.638h1.512v1.176a2.78 2.78 0 0 1 2.49-1.329c1.543 0 2.689.933 2.689 3.071v4.72h-1.513zm9.075 0c0-1.389-.7-1.894-1.574-1.894a2.16 2.16 0 0 0-2.093 2.292v4.109h-1.512v-7.638h1.512v1.176a2.78 2.78 0 0 1 2.49-1.329c1.543 0 2.689.933 2.689 3.071v4.72h-1.512zm10.205 3.347a3.79 3.79 0 0 1-2.932 1.313c-2.084-.101-3.738-1.793-3.79-3.879s1.514-3.859 3.59-4.065a3.59 3.59 0 0 1 3.513 3.712 3.76 3.76 0 0 1-.076.733h-5.452a2.2 2.2 0 0 0 2.276 2.138 2.6 2.6 0 0 0 1.986-.947zm-5.117-3.377h3.926a2 2 0 0 0-1.925-1.909 2.07 2.07 0 0 0-2.001 1.908zm14.147 2.108c-.421 1.526-1.809 2.583-3.392 2.582-2.069-.168-3.663-1.896-3.663-3.972s1.594-3.804 3.663-3.972a3.5 3.5 0 0 1 3.392 2.581l-1.422.413a2.07 2.07 0 0 0-1.97-1.619c-1.268 0-2.124 1.085-2.124 2.6s.856 2.581 2.124 2.581a2.05 2.05 0 0 0 1.97-1.619zm1.085-5.21h1.329v-2.184l1.513-.5v2.688h2.566v1.375h-2.566v3.651c0 1.1.5 1.374 1.084 1.374.451-.037.886-.184 1.268-.427l.5 1.252a3.6 3.6 0 0 1-1.985.565c-1.314 0-2.383-.642-2.383-2.842v-3.574h-1.329z"/></g><defs ><path id="B" d="M274.374 24.144a7.59 7.59 0 0 1-5.462-12.93 7.59 7.59 0 0 1 12.98 5.341c.086 2.025-.676 3.995-2.103 5.435s-3.389 2.221-5.415 2.154zm0-13.907c-2.472 0-4.06 2.223-4.06 6.318s1.553 6.319 4.06 6.319c2.47 0 4.094-2.223 4.094-6.319s-1.624-6.318-4.094-6.318z"/></defs>
  </symbol>
  <symbol xmlns="http://www.w3.org/2000/svg" viewBox="0 0 23 18" id="icon-heart"><path d="M11.15 3.983S4.738-4.103.708 2.946 11.15 17.832 11.15 17.832s15.307-7.7 10.888-14.886S11.15 3.983 11.15 3.983z" fill="inherit"/></symbol>
  <symbol xmlns="http://www.w3.org/2000/svg" viewBox="0 0 16 16" id="icon-arrow-bottom"><g clip-path="url(#A)" stroke="#fff" stroke-width="2" stroke-linecap="round"><path d="M8.256 1v12m6.34-3.855l-6.162 4.852-6.52-4.852"/></g><defs><clipPath id="A"><path fill="#fff" transform="matrix(0 1 -1 0 16 0)" d="M0 0h15.256v15.486H0z"/></clipPath></defs></symbol>
  <symbol xmlns="http://www.w3.org/2000/svg" viewBox="0 0 16 16" id="icon-arrow-left" fill="none" stroke="#fff" stroke-linecap="round" stroke-width="2" xmlns:v="https://vecta.io/nano"><path d="M14.256 7.744h-12m3.855-6.34L1.259 7.566l4.852 6.52"/></symbol>
  <symbol xmlns="http://www.w3.org/2000/svg" viewBox="0 0 16 16" id="icon-arrow-right" fill="none" stroke="#fff" stroke-linecap="round" stroke-width="2"><path d="M1 7.744h12m-3.855-6.34l4.852 6.162-4.852 6.52"/></symbol>
  <symbol xmlns="http://www.w3.org/2000/svg" viewBox="0 0 21 32" id="icon-screen-down" fill="none" stroke="#85261e" stroke-width="3"><path d="M1.5 1.5h18v17h-18zm2.402 22.145l6.616 6.615 6.616-6.615"/><path d="M10.288 9.925v20.576"/></symbol>
</svg>